<?xml version="1.0" encoding="utf-8"?>
<svg version="1.2" baseProfile="tiny-ps" xmlns="http://www.w3.org/2000/svg" width="1024px" height="1024px" viewBox="0 0 1024 1024" preserveAspectRatio="xMidYMid meet">
 <g fill="%2314B488">
  <path d="M261.6 873.7 c-3.4 -3.4 -11.5 -11.8 -18.1 -18.7 -6.6 -6.9 -25.3 -26.2 -41.5 -43 -16.2 -16.8 -45 -46.7 -64 -66.5 -18.9 -19.8 -41 -42.7 -49.1 -51 -8 -8.2 -16.3 -16.8 -18.3 -19 l-3.6 -4 0 -1.3 0 -1.3 37.6 -39.2 c20.7 -21.6 40.5 -42.1 44 -45.7 l6.3 -6.4 2.4 0.9 2.3 1 18 19 c9.8 10.5 32.8 34.8 51 54 18.2 19.3 34.8 36.9 36.9 39.3 2 2.3 4.1 4.2 4.5 4.2 0.4 0 5.8 -5.5 12 -12.2 6.2 -6.8 17.2 -18.6 24.4 -26.3 7.3 -7.7 22.2 -23.7 33.1 -35.5 19.9 -21.5 30.2 -32.5 44.5 -47.5 13.5 -14.2 86.1 -91.5 102.4 -109 8.6 -9.3 18.5 -19.9 21.9 -23.5 7.6 -7.9 29.3 -31 53.1 -56.5 9.8 -10.4 21.7 -23.1 26.4 -28 8.6 -9 18.3 -19.3 31.7 -33.6 3.9 -4.1 14.2 -15 23 -24.3 8.8 -9.2 16.4 -17.5 16.9 -18.4 0.5 -0.9 2.2 -2.7 3.8 -4 1.5 -1.3 2.8 -2.8 2.8 -3.3 l0 -0.9 -29.3 0 -29.3 0 -1.2 -1.2 c-0.7 -0.7 -1.2 -1.7 -1.2 -2.4 l0 -1.2 6.3 -6.9 c3.4 -3.8 18.9 -20.4 34.3 -36.9 15.5 -16.4 32.5 -34.6 37.9 -40.4 5.4 -5.8 15.9 -16.9 23.4 -24.8 l13.6 -14.2 117.5 0.2 117.5 0.3 0.3 1.5 0.3 1.6 -19.8 21 c-20.6 21.8 -44.5 47.4 -79.2 84.9 -11.3 12.1 -23.6 25.4 -27.5 29.5 -3.9 4.1 -15.9 16.9 -26.6 28.5 -10.7 11.5 -34.1 36.4 -52 55.4 -17.9 19 -39 41.5 -46.9 50 -8 8.6 -24.2 26 -36.1 38.6 -11.8 12.7 -30.3 32.4 -41 44 -10.7 11.5 -30.3 32.5 -43.5 46.5 -13.2 14.1 -33.7 35.9 -45.6 48.5 -11.8 12.7 -36.1 38.5 -54 57.5 -44.6 47.5 -93.5 99.8 -152.3 163 -27.4 29.4 -52.2 55.9 -55.1 58.8 l-5.3 5.2 -1.8 0 -1.7 0 -6.1 -6.3z"/>
  <path d="M349.4 878.5 l-0.6 -1.5 1.8 -2.8 c0.9 -1.5 5 -6.1 8.9 -10.2 6.8 -7.1 75.3 -81.6 93.7 -101.8 4.8 -5.3 9.7 -10.1 11 -10.8 l2.3 -1.3 127.2 -0.1 127.3 0 2.9 -2.7 c1.5 -1.6 8.7 -9.1 15.8 -16.8 7.1 -7.7 20 -21.6 28.6 -30.9 l15.7 -16.8 0 -1.2 0 -1.1 -13.7 -14.5 c-32.2 -34.2 -50.4 -53.2 -61.1 -64.2 l-11.4 -11.8 -36.3 0 -36.3 0 -1.2 -1.4 -1.2 -1.5 0.9 -1.5 c0.8 -1.4 96.2 -104.2 112.2 -120.8 l7.4 -7.8 1.8 0 1.7 0 5.4 5.9 c2.9 3.2 29.2 30.8 58.3 61.2 49 51.2 87.2 91.2 128.6 134.7 9 9.5 16.8 18.2 17.3 19.3 l0.9 1.9 -0.9 2 c-0.5 1 -5.6 7 -11.4 13.2 -10.8 11.7 -61.5 66.7 -128.3 139.2 -20.8 22.6 -38.9 42 -40.3 43.1 l-2.5 2 -212 0.3 -212 0.2 -0.5 -1.5z"/>
  <path d="M260 549.9 c-19.5 -20.4 -46.5 -48.7 -60 -62.9 -34.6 -36.3 -80.3 -84.1 -108.7 -113.4 l-24.3 -25.1 0 -1.2 c0 -0.6 2.1 -3.6 4.8 -6.6 5.4 -6.2 64.1 -68.2 86.7 -91.7 5 -5.2 16.7 -17.6 25.9 -27.5 9.3 -9.9 20.1 -21.4 24 -25.5 4 -4.1 10.7 -11.3 15.1 -16 4.3 -4.7 11.7 -12.5 16.3 -17.5 4.7 -5 9.9 -10.5 11.6 -12.3 1.7 -1.9 4 -3.9 5.1 -4.5 l2 -1.2 139 0.2 c76.5 0.1 162.7 0.2 191.8 0.3 l52.7 0 0 1.9 0 1.8 -10.3 10.9 c-5.6 6 -25.6 27.3 -44.2 47.4 -47.6 51 -58.3 62.2 -61.3 64.2 l-2.7 1.8 -107 0 -107 -0.1 -33.8 34.3 c-18.6 18.9 -34.2 35.1 -34.8 36.1 l-1 1.7 13.3 14.2 c13.6 14.5 54.9 57.7 78.2 81.8 l13.1 13.5 36.5 0.5 36.5 0.5 0.3 1.8 0.4 1.8 -8.9 9.7 c-4.8 5.3 -12.8 14 -17.8 19.2 -4.9 5.2 -23.6 25.3 -41.5 44.5 -17.9 19.3 -36.5 39.3 -41.5 44.6 l-9 9.7 -2 0.1 -2 0.1 -35.5 -37.1z"/>
 </g>
</svg>